<?xml version="1.0" encoding="utf-8"?>
<!-- Generator: Adobe Illustrator 24.1.0, SVG Export Plug-In . SVG Version: 6.00 Build 0)  -->
<svg version="1.1" id="Capa_1" xmlns="http://www.w3.org/2000/svg" xmlns:xlink="http://www.w3.org/1999/xlink" x="0px" y="0px"
	 viewBox="0 0 792 612" enable-background="new 0 0 792 612" xml:space="preserve">
<g>
	<path fill="#E67724" d="M701.55,375.866c-68.514-45.727-137.357-90.976-205.325-137.497c-18.329-12.546-32.705-12.939-49.937,1.333
		c-22.768,18.856-46.529,36.682-71.017,53.254c-17.1,11.572-13.663,18.577,0.794,29.052c19.268,13.96,40.581,25.801,56.588,45.826
		c-16.151,4.196-28.076-3.177-40.039-8.633c-17.947-8.185-37.85-14.595-52.528-26.949c-44.322-37.302-84.764-36.886-129.639,0.396
		c-24.266,20.16-55.016,32.561-82.842,48.462c-7.111,4.17-11.065,3.012-10.317-6.078c47.395-40.634,94.899-81.143,142.086-122.016
		c8.774-7.6,16.166-5.411,24.055,0.397c15.161,11.163,30.837,21.718,45.261,33.761c12.189,10.177,20.297,9.88,30.867-3.032
		c28.352-34.636,58.92-67.478,86.986-102.331c15.368-19.084,29.682-20.176,47.407-5.058
		c61.978,52.866,124.124,105.532,182.129,162.828c11.356,11.218,23.647,21.495,35.506,32.205
		C710.845,379.514,707.097,379.889,701.55,375.866z"/>
	<path fill="#E67724" d="M117.289,375.031c3.44,2.025,6.88,4.05,10.318,6.077c-11.159,11.922-25.97,17.792-43.102,21.525
		C95.433,393.432,106.361,384.232,117.289,375.031z"/>
	<path fill="#E67724" d="M701.55,375.866c3.345-1.36,6.69-2.72,10.036-4.08c10.997,4.268,18.138,12.494,28.181,27.267
		C722.217,391.152,711.123,384.87,701.55,375.866z"/>
</g>
</svg>
